<?xml version="1.0" encoding="utf-8"?>
<!-- Generator: Adobe Illustrator 26.1.0, SVG Export Plug-In . SVG Version: 6.00 Build 0)  -->
<svg version="1.1" id="Layer_1" xmlns="http://www.w3.org/2000/svg" xmlns:xlink="http://www.w3.org/1999/xlink" x="0px" y="0px"
	 viewBox="0 0 1080 956" style="enable-background:new 0 0 1080 956;" xml:space="preserve">
<style type="text/css">
	.st0{fill:#3E5C4B;}
	.st1{fill:#AB3030;}
</style>
<path class="st0" d="M822.6,276.1c-2.2,2.5-2.6,4.1-2.6,9v5.9l-5-2.5c-6-3-11.3-3.2-14-0.5c-4.5,4.5-3.3,11.4,2.6,15.1
	c1.9,1.1,3.4,2.3,3.4,2.5c0,0.2-2.2,1.8-4.9,3.4c-7.6,4.7-9,11.5-3.4,16c3.7,2.9,7.8,2.5,14.9-1.5l6.3-3.6l0.7,2.7
	c0.4,1.4,0.4,4.9,0.1,7.8c-0.7,6.8,1.2,11.2,5.5,13c4.3,1.8,8.3,1,10.8-2.2c1.6-2,2-4,2-10.8v-8.3l6.8,3.5c6.1,3.2,7,3.4,10,2.3
	c4.1-1.4,6.6-5.9,5.8-10.5c-0.7-3.6-2.9-5.7-10-9.4c-2.5-1.4-4.6-2.8-4.6-3.1c0-0.3,2.2-1.8,4.8-3.2c6.7-3.6,8.7-6.1,8.7-10.8
	c0-8.3-8.6-11.1-17.2-5.7l-4.1,2.7l-0.7-5.1c-0.9-6.7-3.9-9.8-9.4-9.8C825.9,273,824.7,273.6,822.6,276.1z"/>
<path class="st0" d="M264.8,309.9l-3.2,2.9l0.2,9.6l0.3,9.7l-2.8-0.7c-1.5-0.4-4.5-1.3-6.7-2.1c-5.7-1.9-9.1-1.6-12.5,1.3
	c-6.3,5.2-3.1,13,6.4,16c3,1,5.5,2,5.5,2.3c-0.1,0.3-3.2,3-6.9,5.9c-3.8,3-7.5,6.7-8.1,8.3c-1.9,4.6-0.3,9,4.1,11.2
	c4.5,2.2,6.9,1.4,14.8-4.8c3.2-2.5,6.1-4.5,6.5-4.5c0.4,0,0.5,3.4,0.1,7.5c-0.7,7.3-0.7,7.5,2.3,10.5c2.1,2.1,4,3,6.2,3
	c7.8,0,10-4.1,10-18.5c0-11.8-0.1-11.6,7-8.4c6.7,3.1,10.8,2.8,14.2-1c1.5-1.7,2.8-4.1,2.8-5.4c0-4-3.6-8.4-8.4-10.2l-4.6-1.8
	l4.5-3.9c3.9-3.4,4.5-4.5,4.5-7.9c0-7.4-6.9-11.1-13.9-7.5c-1.5,0.8-3.3,2.2-4,3c-2.3,2.7-3.1,1.8-3.1-3.5
	C280,309,272.1,303.3,264.8,309.9z"/>
<path class="st0" d="M807.9,397.5c-4.2,2.3-5.2,6-4,15c0.6,4.3,0.9,8,0.6,8.3c-0.3,0.3-4.3-0.4-9-1.6c-10.7-2.7-10.7-2.7-14.4,0.4
	c-4,3.4-4.4,9.2-0.7,12.9c2.2,2.2,8,4.5,11.6,4.5c0.8,0-1.1,2.5-4.3,5.6c-8.3,7.8-9.3,11.8-4.4,17.1c1.4,1.6,3.2,2.3,5.8,2.3
	c3.7,0,4.2-0.3,17.1-10.8c2.5-2.1,2.8-2.2,2.9-0.5c0,1,0.4,5.5,0.8,10.1c0.7,7.2,1.2,8.7,3.6,11.2c3.8,3.9,9.4,4.2,13,0.5
	c2.9-2.8,3.1-6.4,1.4-17.6c-0.6-3.9-0.9-7.2-0.6-7.5c0.2-0.2,3.9,0.7,8.3,2.1c4.3,1.4,9.3,2.5,11.1,2.5c4.6,0,8.5-3.6,8.6-8.2
	c0.2-5.9-2-8-11.9-11.1c-4.9-1.6-9.6-3.1-10.4-3.3c-1-0.4,1-2.8,6.3-7.7c6.9-6.5,7.7-7.6,7.7-10.9c0-7.7-8.5-12-14.4-7.2
	c-1.4,1-4.3,3.4-6.5,5.2l-4.1,3.4v-3.5c0-5.3-1.9-9.6-5.1-11.2C813.4,395.7,811.3,395.7,807.9,397.5z"/>
<path class="st0" d="M376.5,419.6c-5.8,1.6-26.9,4.4-33.3,4.4h-4.3l3.1,3.2c7,7.4,19,27.6,19,32.1c0,0.9,3.1,2.2,8.6,3.7
	c4.7,1.2,10.6,3.3,13.2,4.7c5.8,3,12.8,9.6,15.2,14.4l1.9,3.5l9.5-4.7c10.3-5,20-7.9,26.7-7.9c3.6,0,4-0.2,3.3-1.8
	c-1.3-2.8-8.3-24.5-8.9-27.5c-0.5-2.6-0.8-2.7-6.4-2.7c-14,0-25.3-4.3-33.4-12.9c-3-3.1-5.7-6.7-6.1-7.9
	C383.8,417.7,383.4,417.7,376.5,419.6z M395,451.2c11,5.9,19.2,11,18.7,11.4c-1.7,1.8-41.7-19.2-41.7-21.8
	C372,439.9,385,445.8,395,451.2z"/>
<path class="st0" d="M570.1,425c-9.3,2.4-24.8,3.9-32.8,3.2l-6.2-0.4l-7.3,6.7c-10,9.2-18.8,13.5-30.9,15l-4.7,0.6l-0.4,12.3
	c-0.3,11.2-0.6,12.9-3.4,18.4l-3,6l11.6,0.7c6.3,0.4,14.6,1.3,18.3,1.9l6.8,1.3l1.6-3.1c2.9-5.8,9.2-13.3,14.1-17
	c6-4.3,15.7-8.1,23.3-9.1l5.5-0.7l2.8-9.4c1.6-5.1,5-13.6,7.7-18.9c2.6-5.2,4.7-9.5,4.6-9.4C577.6,423.2,574.2,424,570.1,425z
	 M545.5,444c-1.3,2.2-27.6,18.9-38.5,24.5c-1.8,0.9-2.9,1.2-2.5,0.6c2.3-3.8,35.6-24.7,41.3-26C546,443,545.8,443.5,545.5,444z"/>
<path class="st0" d="M267.7,474.1c-8.9,2.1-16.3,7.6-23.1,17.3c-15.5,21.8-26.5,59.9-26.6,91.9c-0.1,44,13.5,76.9,36,87.6
	c7.2,3.4,20.5,4.1,28.3,1.6c10.9-3.6,26.7-15.9,35.3-27.7c2-2.6,3.9-4.8,4.3-4.8c0.4,0,1.5,3.5,2.5,7.7c3.9,16.7,7.5,22.3,14,22.3
	c3.5,0,7-2.1,8.6-5c0.6-1.1,1.9-6.1,3-11.3c2.3-11.4,5.5-20.2,11.7-31.8c5.2-10,12.8-19.3,13.7-16.9c0.3,0.8,1.2,8.5,2.1,17
	c2.8,28.3,7.7,38,19.8,39.6c18.7,2.6,36.4-27.2,41.1-69.3l1.2-10.8l4.8-1.8c2.7-1,5-1.6,5.1-1.5c0.1,0.2-0.1,3.4-0.6,7.3
	c-0.4,3.8-0.8,13.6-0.8,21.7c-0.1,20.8,2.4,32.5,8.5,39.7c7.6,9,20.4,7.9,27.6-2.4c1.8-2.5,3.5-4.5,3.9-4.5s1,1.2,1.4,2.7
	c2.6,10.5,13.2,16.4,20.7,11.5c5.8-3.8,11.9-15.3,17.9-33.6c2.2-6.6,4.2-12.7,4.4-13.4c0.6-1.6,2.5-0.6,8.4,4.6l4.4,3.9l-6.6,7.9
	c-3.7,4.3-8.4,11.2-10.4,15.3c-3.6,7.1-3.8,7.8-3.8,17.5c0,8.8,0.3,10.7,2.5,14.9c2.9,5.7,7.6,10.2,13.9,13.1c6.6,3,20.9,3,26.6-0.1
	c19.6-10.5,21.9-37.8,5.4-64.3l-2.2-3.6l6.6-8.2c7.5-9.2,6.7-9.6,8.7,4.3c2.4,16.7,6.3,27.5,12.5,34.3c4.2,4.8,9,6.6,15,5.9
	c5.7-0.6,9.9-3.7,13.5-9.9l2.9-5.1l0.7,3.9c0.9,5.1,3,9.1,5.3,10.4c2.9,1.5,7.3,1.2,9.9-0.6c3.6-2.5,4.3-5.7,3.1-13.4
	c-2.2-12.9,2.2-34.5,10.3-50.8c3-6.1,4.3-8,4.9-6.9c0.5,0.8,1.3,11.3,1.9,23.3c1.9,38.9,1.7,38,5.2,40.9c3.4,2.9,5.7,3.1,9.9,1
	c3.5-1.8,4.9-5,4.9-10.8c0.1-15.2,11.3-43.8,20.7-52.9l3.3-3.2v7.5c0,4-0.7,14.6-1.5,23.4c-1.8,19.2-1.9,28.6-0.4,35.7
	c2.4,11,6.7,15.8,14.4,15.8c4.2,0,10.9-5.6,15-12.6c2.4-4.1,4.5-5.7,4.5-3.4c0,0.6,2.1,2.4,4.7,4c7.8,5,17,3.9,24.2-2.9
	c1.8-1.7,3.4-3.1,3.6-3.1c0.1,0,0.5,2.2,0.9,4.9c1.7,13,6.4,21.1,13.6,23.2c8.9,2.7,16.1-1.9,20.8-13.4c2.9-6.9,10.2-29.5,13.8-42.2
	l1.6-6l4.8,5.4l4.8,5.5l-4.9,5.4c-9.2,10-12.6,19-11.7,30.6c1,11.8,8,22.1,18.6,27.3c4.4,2.1,7,2.7,12.1,2.7
	c18.3-0.1,29.4-15.7,24.7-34.5c-1.6-6.1-7.4-19.2-11.3-25.2c-1.8-2.8-1.8-2.8,0.7-4.8c7.3-5.6,20.7-14.3,25.5-16.4
	c6.7-3,9-6.1,8.2-11.2c-1.9-11.3-14.5-9.1-35.7,6.4c-5.3,3.8-10.1,7.2-10.7,7.6c-1.6,1-15.6-16.1-19.3-23.7
	c-3.4-6.8-3.8-12.3-1.2-15.6c1.5-1.9,2.5-2.2,5.4-1.6c4.3,0.8,11.2,6.6,13.8,11.5c2.4,4.8,4,6.1,8.4,6.8c3,0.5,4,0.1,6.6-2.5
	c5.4-5.5,3.4-13-6.2-22.8c-9.1-9.4-22.4-13.7-32.3-10.4c-4.8,1.6-10.1,6.3-12.7,11.4c-2.5,4.9-3.5,16.3-2,22c1,3.3,0.6,5.8-2.9,19
	c-6.3,24-13.2,45.1-14,42.9c-2.1-5.2,0.1-27,5.1-50.4c4.4-20.6,4-24.2-2.7-27.8c-1.7-0.9-5.2-2.9-7.9-4.6
	c-8.3-5.1-17.6-3.5-26.6,4.4c-5.5,4.8-14.7,18.4-18.4,27.3c-9,21.3-17.1,38.4-17.9,37.6c-0.3-0.3,0.7-14.4,2.5-35
	c1.9-21.7-1-31.7-10.7-36.7c-3.3-1.7-9.2-1.3-13.8,0.9c-5,2.4-12.5,9.7-16.8,16.4l-3.2,4.8l-1.2-6.3c-1.8-8.5-4.9-14.7-8.7-17
	c-3.7-2.3-10.6-2.5-14.5-0.4c-3.9,2-10.6,9.8-14.4,16.7c-1.8,3.2-3.5,5.8-3.9,5.8c-0.5,0-0.8-1.4-0.8-3c0-6.1-4.5-11-10-11
	c-1.1,0-3.3,1.2-5,2.7c-3.4,3-3.7,4.5-6,27.8c-1.7,16.8-5.9,35.5-7.9,35.5c-0.9,0-3.4-6.3-5-12.6c-4.2-16.1-5.5-51.4-2.4-65.7
	c1.3-6.3,2-7.8,3.7-8.2c20.7-4.9,51.2-9.5,63.3-9.5h7.5l-0.6,3.5c-1,5.1,1.6,10.1,6,11.5c4.7,1.6,9.4-0.1,13.8-5.1
	c4.6-5,4.9-10.5,1-16.5C693,522.1,685,519,669,519c-13.6,0-48.2,4.9-61.2,8.6c-1.6,0.5-1.8-0.5-1.9-10.3
	c-0.1-19.9-1.9-24.3-10.1-24.3c-2.8,0-4.6,0.7-6.2,2.3c-2.1,2.1-2.5,3.7-3.1,14.2c-0.4,6.5-1,14.1-1.4,16.9l-0.6,5.1l-12-0.1
	c-7.6-0.1-14.4-0.8-18.5-1.8c-12.8-3.4-18.7-7.8-12.2-9.2c7.6-1.6,10.8-5.2,9.8-10.9c-2.5-13.1-26.5-7.4-30.6,7.3
	c-1.2,4.6-1.2,5.8,0.1,10.5c1.3,4.6,6.7,10.9,12.3,14.2c8.1,4.7,20.9,7.6,36.4,8.2l14.2,0.6v4.2c0,8.8-7,23.8-17.8,38
	c-3.7,4.9-7.1,9-7.7,9.2c-1.2,0.3-19.4-15-22.6-19.1c-2.1-2.7-3-9.1-1.5-11.5c2.2-3.5,12.6,1,15.6,6.8c3.9,7.7,10,9.3,15.2,4.1
	c2.7-2.7,3-3.6,2.5-7.1c-0.7-5.4-6-13.3-11.4-17c-6.6-4.6-12.3-6.2-20.3-5.7c-5.7,0.3-7.7,0.9-11.2,3.4c-8.3,5.8-11.7,17.4-8.5,28.5
	c1.6,5.4,1.6,5.7-1.2,16.5c-4.4,16.3-9.2,29.3-10.2,26.8c-1.4-3.4-1-28.5,0.7-44.2c1.8-17.1,1.5-19-3.6-21.7c-4-2-8.3-1.2-10.9,2.1
	c-1.1,1.4-3.6,9.5-6.1,19.7c-8,33.8-14.1,52.1-16,48.7c-1.3-2.4-3-15.3-3-23c0-3.9,0.7-15,1.6-24.6c1.8-19.9,1.3-23.3-4-26.5
	c-4.2-2.6-6-2.4-17.1,1.6c-8.7,3.1-9.6,3.3-10.2,1.7c-4.2-11.8-7.9-18-13.5-22.7c-10.7-9-26-8.7-33.2,0.8c-3.4,4.4-6,14.6-5.1,20
	c0.9,5.6,5.2,13.4,9,16.3c5.2,3.9,14.1,7.5,20.7,8.2l6.3,0.7l-0.3,5c-0.8,11.7-5.7,30.3-10.9,41.4c-2.8,5.8-8,12.4-9.3,11.6
	c-1.4-0.8-2.9-9.4-4.5-24.4c-1.9-18.2-3.8-25.4-8.2-29.7c-11.3-11.4-28.5-0.6-42.9,26.9l-5.8,11.2l-1-4.4c-0.9-4.1-0.7-4.9,3.3-12
	c7.6-13.6,20.8-41.4,24.6-51.6c13.7-37,11.4-65.1-6-74.2c-7.8-4.1-18.8-0.7-25.9,8.1c-15.4,18.7-22.7,68.5-17,115.8l0.7,5.6
	l-6.8,9.9c-8.4,12.1-22.2,26-29,29.2c-13.9,6.6-25.2,2.1-34.1-13.8c-8.2-14.7-12.7-44-10.4-68.1c2-21.2,6.7-38.1,15.5-56.5
	c9.2-19.1,16.9-25.4,25.5-21c3.8,2,5.6,5.6,6.3,13c0.5,5,1.1,6.4,3.7,8.7c1.7,1.6,3.9,2.8,5,2.8c5.5,0,10-4.9,10-10.9
	c0-4.7-2-13.2-4.2-17.4C293.2,478.6,278.9,471.4,267.7,474.1z M354.2,505.1c1.3,2.4,1.8,5.8,1.8,12c0,14.5-6,34.4-17,56.4l-6,12
	l0.5-18c0.6-22.8,3-38.2,8.5-52.6c2.4-6.7,7.6-14.2,9.3-13.7C352,501.5,353.3,503.2,354.2,505.1z M409.8,551.6
	c2.7,1.9,6.9,8.2,7.8,11.9c0.7,2.6,0.6,2.7-2.7,2c-8.1-1.8-11.9-4.8-11.9-9.4C403,550,405.3,548.4,409.8,551.6z M780,580
	c2,3.8-14.2,44.7-20.5,51.4c-2.6,2.8-2.8,2.9-3.9,1c-0.6-1-1-5.1-1-8.9c0.2-12.7,7.8-30.2,17.6-40.8C777.1,577.5,778.4,577,780,580z
	 M561.9,638.2c5,11.9,5.1,21.6,0.1,27.1c-2.5,2.8-3.5,3.2-7.7,3.1c-11.3-0.1-15.4-9.4-9.4-21.6c1.1-2.4,4.4-7.1,7.2-10.6
	C557.9,629.1,558,629.1,561.9,638.2z M851,644.5c7.5,14.6,6.6,23.5-2.1,23.5c-8.3,0-14.5-10.1-11.9-19.5c1.1-4.1,7.1-12.5,9-12.5
	C846.4,636,848.7,639.8,851,644.5z"/>
<g>
	<path class="st1" d="M358.3,244.5c-4,1.7-11.2,8.3-14.8,13.6l-2.8,4l-1.4-3.2c-1.8-4.2-4-5.8-8.3-5.8c-7.4,0-8.9,3.3-10,22.2
		c-1.1,18.2-4.3,57.7-6.7,81.2c-0.9,9.3-1.7,24.8-1.7,34.3l-0.1,17.4l2.8,2.4c5.2,4.5,12.6,2.5,14.5-3.9c0.6-1.7,1.3-8.8,1.6-15.7
		c2.7-55.5,5.6-73,17.5-103.2c5.7-14.5,14.1-27.1,16.9-25.4c3.7,2.2,4,40,0.7,75.1c-0.8,8.8-1.8,20.3-2.1,25.5
		c-0.6,9.2-0.6,9.6,1.9,12.2c3.3,3.6,8.5,3.8,12.2,0.5c2.3-1.9,2.9-3.9,4.6-13.5c5.4-31.2,18.1-65.3,31.8-86
		c7-10.3,9.7-13,11.3-11.4c1.8,1.8,0.3,29.4-3.1,55.2c-4.5,34.8-5.5,49-4.2,59.7c1.4,11.8,3.4,17.2,8.2,22.7c8.8,10,21,8.7,35.4-3.8
		l6-5.2l4.5,2.5c4,2.3,5.6,2.6,14,2.6s10.2-0.3,15.4-2.9c12-5.9,26.5-23,35.5-41.9c3.6-7.7,9-23.2,10.5-30.3
		c0.6-2.8,1.2-3.2,4.9-3.7c2.3-0.3,4.2-0.5,4.3-0.4c0.1,0.1-0.7,5.6-1.7,12.2c-2.9,18.1-3.5,35.5-1.5,43.3
		c4.4,17.4,19.5,24.7,35.1,17.2c12.2-5.9,24.6-23.6,32-45.5c2.4-7.1,6.3-24,7-30.5l0.7-5.5l7.6-2.7c4.2-1.5,7.8-2.6,8-2.4
		c0.2,0.3-0.2,4-0.9,8.3c-1.7,11-1.8,38.7,0,43.6c1.6,4.6,6.3,10.2,10.2,12.3c3.6,1.8,9.7,1.8,14.3-0.1c4.6-1.9,11.8-8.5,15.8-14.3
		l3-4.4l2.4,5.7c2.8,7.1,5.5,10,11.1,12.1c9.1,3.5,21.5,0.1,32.6-9c3.1-2.6,5.7-4.3,5.7-3.9c-0.1,4.6-6,40.9-7.6,46.5
		c-0.4,1.3-2.4,1.7-11.2,2.2c-5.9,0.4-14.8,0.9-19.8,1.2c-9,0.6-9,0.5-10.2-2.1c-2.3-5-10.1-12.2-16.5-15.1c-5-2.3-8-2.9-15.7-3.2
		c-17.2-0.7-29.3,4.1-42.2,16.9c-9.3,9.2-14.1,18.3-16.4,31.1c-4.4,24.3,7.5,52.9,26.8,64.5c16.2,9.8,40.7,9.4,61.3-1
		c27.3-13.7,47.1-38,56.4-69.3l2.1-7l9.7-2.7c27.9-7.9,46.1-20.6,55-38.4c7.1-14.2,7.7-26.3,1.6-37.4c-6.2-11.5-20.7-16.1-32.9-10.3
		c-4.7,2.3-10.4,10.9-10.4,15.9c0,7.9,9.7,11.6,15.4,5.9c1.4-1.5,2.6-3,2.6-3.5c0-1.8,3.9-2.9,6.4-1.8c3.5,1.6,5,5.9,4.3,12.3
		c-1.6,15.4-16.4,29.5-38.9,37.2c-3.9,1.3-7.3,2.2-7.5,2c-0.2-0.2,0.5-5.7,1.6-12.2c3.4-19.5,10.4-83.7,10.4-95.2
		c0.1-4.7-3.9-8.4-8.8-8.4c-5.9,0-7.8,2.8-11.8,17.8c-6.7,24.8-13.3,37.9-22.5,44.9c-4.4,3.5-11.7,6.4-12.8,5.2
		c-3.1-3.1-3-27.6,0.2-55.4c0.6-6,0.6-6.3-2.4-9.2c-5.5-5.5-12.8-3.5-15.6,4.2c-0.8,2.3-3.8,11.5-6.5,20.3c-2.8,8.9-7.1,20.2-9.5,25
		c-4.4,8.7-10.8,16.5-12.3,15c-1.3-1.3-0.6-24.4,1.1-37.1c1.9-13.9,2-22.8,0.5-25.8c-3.5-6.8-9.4-7.3-23.4-1.8
		c-5.4,2.2-10.2,3.8-10.6,3.6c-0.3-0.3-0.9-2.4-1.2-4.8c-0.9-6.6-4.3-14.9-8.2-20c-12.2-16-37.7-11.6-44.1,7.6
		c-5.5,16.5,9.5,36,29.5,38.4c6,0.7,6,0.8,3.6,12.5c-3.6,17.1-10.7,34-18.5,43.5c-4.9,6.1-10.8,9.8-13.9,8.8
		c-5.4-1.7-5.9-17-1.6-44.8c3.1-20.1,2.9-23.6-1.7-27.9c-2.9-2.7-3.4-2.8-12.8-2.8h-9.7l-0.7-7c-1.6-18-12.2-32.6-24.4-33.8
		c-4.1-0.4-5.9,0-10.1,2.3c-15.3,8.4-18.9,31.4-7.1,45.7c3.1,3.8,12.6,9,18.8,10.3c1.7,0.4,3.2,1.3,3.2,2c0,3.2-5.6,18.7-9.7,27
		C510,368.2,497.1,381,486.7,381c-1.8,0-4.1-0.6-5.1-1.3c-1.7-1.3-1.6-1.7,1.8-7c12.4-19.3,17.3-36.9,14.7-52.4
		c-3.1-18.2-16-26.6-28.8-18.7c-6,3.7-10.3,11.6-13.9,25.9c-4.3,17.3-4.3,33.9,0.2,49.3c0.5,1.9-0.2,3.1-4,6.7
		c-2.5,2.4-5.9,5.1-7.5,6c-3,1.5-3.1,1.5-4.8-1.7c-1.5-2.8-1.8-5.8-1.7-20.8c0-14.2,0.7-22.9,3.8-46.5c6-46.2,5.4-62.3-2.8-70.9
		c-8.7-9.3-22.3-5.6-33.7,9.1c-5,6.3-13.2,19.6-15.8,25.3l-1.5,3.5l-0.7-11c-1-17.8-4.9-27.4-12.9-31.5
		C369.5,242.7,362.9,242.5,358.3,244.5z M604.6,276.7c2.5,2.7,5.4,10.8,5.4,15.1c0,2.1-0.3,2.3-3.2,1.7c-6.4-1.4-10.9-4.4-12.8-8.7
		c-2-4.6-1.7-7.2,1.3-9.3C598.5,273.3,601.8,273.7,604.6,276.7z M528.2,285c1.5,3,3,7.9,3.4,10.7l0.7,5.3l-4.7-1.6
		c-7.4-2.5-10.3-9.4-7.2-16.8C522.5,277.5,524.8,278.1,528.2,285z M480,328.5c0,9.2-1,13.6-5.2,22c-4.5,9.3-5.1,9.2-4.4-0.5
		c0.6-9,3.5-22.5,6.1-28.7C478.7,316,480,318.5,480,328.5z M663.2,404c2,0.6,4.7,1.9,6,2.9l2.3,1.9l-4.5,1.1
		c-24.1,6.1-38,18.2-38,33c0.1,7.2,2.6,12.7,8.1,17.4c8.7,7.5,20.7,8.5,32.6,2.7c12.3-6.1,21.1-18.2,23.5-32.2l1.2-6.5l9.5-0.7
		c10.3-0.6,22.1-0.8,22.1-0.3c0,0.2-1.5,4.3-3.4,9.1c-6.8,17.1-18.3,31.9-32.4,41.5c-27.9,18.9-55.2,16.6-66.9-5.6
		c-5-9.4-6.6-16.3-6.1-26.7c0.5-11.1,3.3-18,10.4-25.7C637.5,405.4,651.3,400.7,663.2,404z M674.6,430.2
		c-1.9,9.4-11.1,17.8-19.5,17.8c-4.9,0-8.1-2.1-8.1-5.3c0-4,9.1-10.3,20-13.8C675,426.4,675.4,426.5,674.6,430.2z"/>
	<path class="st1" d="M277.4,401c-3.6,1.4-5.4,5-5.4,10.7c0,6-0.3,6.2-7,3.8c-6-2.1-9.5-1.9-12.7,0.9c-2.2,1.9-2.8,3.3-2.8,6.4
		c0,5.1,2.3,7.6,8.8,9.8l5,1.7l-2.9,2.1c-8,5.8-10.4,8.7-10.4,12.8c0,8.6,8.7,11.6,16.5,5.7c3.5-2.7,4-2.8,4.3-1.2
		c0.7,4.2,2.7,7.5,5.3,8.8c3.4,1.8,5,1.9,8.4,0.3c3.8-1.7,5.5-5.8,5.5-13.3c0-3.6,0.1-6.5,0.3-6.5c0.1,0,2.6,0.9,5.5,2
		c7.5,2.8,10.7,2.6,14.4-1c2.6-2.6,3-3.6,2.5-6.6c-0.7-4.4-2.3-6.3-6.5-8.1l-3.4-1.4l3.6-3.9c4.6-5.1,4.8-9,0.7-13.1
		c-3.7-3.6-7.5-3.8-12.5-0.4c-4.5,3.1-4.6,3.1-4.6,0c0-3.8-2.5-7.9-5.5-9.3C281.5,399.8,280.3,399.8,277.4,401z"/>
	<path class="st1" d="M455.9,451.8c-9,5.8-11.6,18-5.7,27c6.7,10,22.6,9.6,29.5-0.9c3.7-5.6,4.3-14,1.4-19.6c-3-6-7.3-8.7-14.6-9.1
		C461.2,448.9,460,449.2,455.9,451.8z"/>
	<path class="st1" d="M751.3,470c-3.5,1.4-5.2,5.1-6.3,13.5c-0.5,4.3-1.2,8-1.4,8.3c-0.3,0.2-4.1-1.6-8.5-4.2
		c-9.4-5.4-13.8-6-17.6-2.1c-2.9,2.8-3.3,7.9-1,11.2c0.8,1.2,4,3.6,7,5.3c3,1.7,5.5,3.3,5.5,3.6c0,0.2-2.9,2.2-6.5,4.5
		c-3.6,2.2-7.4,5.2-8.5,6.6c-3,3.9-2.6,8.8,1,12.5c2.7,2.6,3.6,3,6.7,2.5c2-0.4,4.5-1.5,5.7-2.6c3.2-2.9,12.6-8.4,13.3-7.7
		c0.3,0.3,0,4.5-0.7,9.3c-2.1,13.3-1.9,15.1,2,18.6c2.7,2.4,3.9,2.8,6.8,2.3c5.7-0.9,7.3-3.3,8.8-13.3c0.8-4.8,1.4-10.3,1.4-12.1
		c0-1.7,0.3-3.2,0.7-3.2c0.3,0,3.4,1.6,6.9,3.5c7.4,4.2,11.5,4.5,14.9,1c2.7-2.6,3.4-8,1.5-11.5c-0.6-1-4.2-3.6-8-5.7
		c-3.8-2.1-7-4-7-4.3c0-0.3,3.9-2.8,8.7-5.5c9.2-5.3,11.6-8.5,10.6-13.8c-0.7-3.5-4.7-6.7-8.5-6.7c-1.6,0-5.9,1.6-9.4,3.6l-6.4,3.6
		l0.6-4.6c0.8-5.7-0.9-10.2-4.7-12.1C755.7,468.8,754.5,468.7,751.3,470z"/>
	<path class="st1" d="M425.7,481.9c-5.8,3.8-9,9.6-9,16.6c0,13.1,12.8,22.1,24.6,17.2c3.9-1.7,10.4-8.7,11.3-12.2
		c1.2-4.9-0.1-14-2.5-17.3C444.8,478.7,433.9,476.8,425.7,481.9z"/>
	<path class="st1" d="M835.6,486.1c-2.1,2.5-2.6,4.1-2.6,8.5c0,6.1-0.6,6.4-6.7,3.9c-8.5-3.6-15.7-0.4-15.7,7c0,3.9,2.3,6.9,7.1,9.4
		l3.3,1.6l-4.8,3.5c-2.6,1.9-5.3,4.8-6,6.3c-2.9,6,3.2,13.8,9.6,12.2c1.4-0.3,4.4-1.9,6.8-3.6c2.3-1.6,4.5-2.9,4.7-2.9
		c0.3,0,0.8,2,1.1,4.4c1.4,8.9,10,12.2,15.7,5.8c2.6-2.9,2.9-4,2.9-9.7V526l6.9,2.5c3.8,1.4,8.3,2.5,10,2.5c7.5,0,11-9.9,5.5-15.4
		c-1.5-1.4-3.3-2.6-4-2.6s-2.5-0.5-3.9-1.2l-2.5-1.1l3.4-3.2c4.6-4.2,5.5-7.8,3-12.4c-1.4-2.7-2.8-3.8-5.6-4.5
		c-3.4-0.9-4.2-0.6-8.3,2.3l-4.5,3.2v-3.9c0-5.9-3-9.2-8.5-9.2C838.9,483,837.7,483.5,835.6,486.1z"/>
	<path class="st1" d="M465,494.6c-7,6.3-7.8,15.2-1.9,21.9c12.2,13.8,33.4-4.7,22.7-19.8c-2.7-3.8-6.8-5.7-12.2-5.7
		C469.7,491,468.4,491.6,465,494.6z"/>
</g>
<path class="st0" d="M491.8,536.3c-3.4,2.9-4.8,5.8-4.8,10c0,4.7,5.5,9.7,10.6,9.7c7.1,0,13.4-5.4,13.4-11.5c0-2.5-2.7-7.2-5.2-8.9
	C502.4,533.2,495,533.5,491.8,536.3z"/>
</svg>
