<?xml version="1.0" encoding="utf-8"?>
<!-- Generator: Adobe Illustrator 26.1.0, SVG Export Plug-In . SVG Version: 6.00 Build 0)  -->
<svg version="1.1" id="Layer_1" xmlns="http://www.w3.org/2000/svg" xmlns:xlink="http://www.w3.org/1999/xlink" x="0px" y="0px"
	 viewBox="0 0 1080 956" style="enable-background:new 0 0 1080 956;" xml:space="preserve">
<style type="text/css">
	.st0{fill:#3E5C4B;}
	.st1{fill:#B7954B;}
	.st2{fill:#AB3030;}
</style>
<path d="M290.1,448.6c-1.2,1.5-2.1,3.3-2.1,4.2c0,3.5,5,11,11.9,17.8c7.2,7.1,7.3,7.2,5.7,9.6c-4.8,6.8-4,15.5,1.9,20.7
	c7.3,6.4,15.8,6.2,22.7-0.6l3.9-3.8l4.7,2.8c8.3,4.9,31.4,16.3,41,20.2l9.2,3.8l-0.7,3.6c-2.4,11.7,2.8,17.8,16.2,18.8
	c5.1,0.4,6.5,0.1,9.5-1.9c1.9-1.3,4.3-4,5.4-6.1c1.2-2.6,2.3-3.6,3.3-3.3c4.5,1.8,26.5,7.1,41.9,10.1c9.8,2,18.2,4.1,18.6,4.8
	s0.8,2.3,0.8,3.7c0,3.8,3.7,9,7.5,10.6c5,2.1,13.3,1.8,17.3-0.6c2.7-1.7,6.5-6.3,7.5-9.4c0.2-0.7,27.9,0.5,46.4,2
	c6.1,0.5,6.2,0.6,6.9,3.9c1.6,8.5,8.3,13.4,18.3,13.5c10.1,0,16.1-4.6,17.6-13.8c0.5-3.4,1.1-4.2,2.8-4.2c5.1,0,31.1-2.2,42.1-3.5
	c6.5-0.8,12.2-1.3,12.6-1c0.4,0.2,1,1.7,1.3,3.3c1.3,6.5,8.1,11.2,16.1,11.2c6,0,10.5-1.9,13.9-5.9c2.3-2.7,2.7-4.2,2.7-9.2
	c0-5.3,0.2-5.9,2.3-6.4c15.1-3.4,29.3-7,38.9-9.9c6.5-2,12-3.6,12.2-3.6s0.7,1.3,1.1,2.9c1.1,4.9,5.7,8.4,12,8.9
	c4.7,0.4,6.5,0,12-2.7c8.7-4.3,11-8,10.1-16.5l-0.6-6.2l6.3-2.7c10.7-4.7,32.1-16.6,34.5-19.3c2.5-2.8,3-8.8,0.9-11.5
	c-2-2.6-5.8-4.1-8.6-3.6c-1.5,0.3-5.6,2.3-9.2,4.5C767.4,509,706.1,527.1,636,534.7c-23.1,2.5-90.1,2.5-113.5,0
	c-89.1-9.6-160.5-35.1-205.3-73.3C298,445.1,294.2,443.3,290.1,448.6z"/>
<g>
	<path class="st0" d="M388.2,550.7c-4.2,2-11.6,10.4-14.4,16.3c-3,6.1-2.9,15.9,0.2,26c2.9,9.3,6.2,13,11.6,13
		c3.2,0,4.4-0.7,8.6-5.3c13.2-14.2,17.9-26.4,14.7-38.2c-1.6-5.5-4.4-9.2-8.9-11.5C395.3,548.6,392.6,548.5,388.2,550.7z"/>
	<path class="st0" d="M680.8,568.5c-5.8,3.2-10.3,15.4-9.6,26.4c0.4,8,3.9,14.5,12.5,23.5c4.9,5.1,5.8,5.6,9.7,5.6
		c5.8,0,7.8-2.5,11-13.5c2.9-9.8,3.5-21.7,1.4-27.6C701.7,570.8,689.6,563.8,680.8,568.5z"/>
</g>
<g>
	<path class="st1" d="M777.1,544.8c-5.3,2.6-7.1,5.9-8.2,14.8c-2,15.6,3.9,26.3,19.7,36.4c5.5,3.4,7.5,3.7,11.5,1.3
		c4.3-2.6,5.3-6.1,5.3-20.7c0-11.2-0.3-13.8-2.1-17.7C797.5,546.2,786.2,540.1,777.1,544.8z"/>
	<path class="st1" d="M489.1,570.7c-6,3-14.1,18.1-14.1,26.3c0,4,2.9,12.8,6.6,20.3c2.6,5.1,4.3,7.2,6.8,8.4c4.1,1.9,7.9,1.2,11-2.1
		c3.7-4.1,11.4-19.9,12.7-26.3c2.3-11-1.6-21.5-9.6-26C497.8,568.6,493.7,568.4,489.1,570.7z"/>
</g>
<g>
	<path class="st2" d="M289.1,509.3c-2.5,1.2-7,4.7-10.1,7.7c-7.2,7-9,12.4-9,26c0,9.1,0.2,10.1,2.6,12.9c4.1,4.9,8,4.3,18.9-2.7
		c5-3.2,10.5-7.6,12.4-9.7c10-11.5,10.8-26.5,1.9-34C301.9,506.2,295.3,506.1,289.1,509.3z"/>
	<path class="st2" d="M581.5,577.6c-4.1,2.3-6.1,4.9-9.7,12.4c-2.6,5.3-3.2,7.8-3.2,13.6c-0.1,6.4,0.3,7.9,4.1,15.6
		c5.7,11.4,8.9,14.8,14,14.8c4.7,0,7.7-2.8,11.6-10.6c7.3-14.5,8.6-26.4,4.1-36C598.2,578.4,588.4,573.8,581.5,577.6z"/>
</g>
</svg>
