<?xml version="1.0" encoding="utf-8"?>
<!-- Generator: Adobe Illustrator 25.0.1, SVG Export Plug-In . SVG Version: 6.00 Build 0)  -->
<svg version="1.1" id="Layer_1" xmlns="http://www.w3.org/2000/svg" xmlns:xlink="http://www.w3.org/1999/xlink" x="0px" y="0px"
	 viewBox="0 0 1080 1080" style="enable-background:new 0 0 1080 1080;" xml:space="preserve">
<style type="text/css">
	.st0{fill:#DFBC19;}
	.st1{fill:#009F5E;}
	.st2{fill:#9B6F45;}
</style>
<g transform="translate(0.000000,1080.000000) scale(0.100000,-0.100000)">
	<path class="st0" d="M5367,9133c-2-4-30-86-61-180l-58-173l-96-1c-53-1-134-4-179-7l-81-7l129-99c71-54,133-104,138-110
		c7-8-4-71-30-185c-21-96-38-176-36-178c2-1,67,42,145,97s144,100,147,100c4,0,65-48,136-106c103-84,129-101,129-85
		c0,17-44,238-65,327c-4,16,21,41,130,130l135,109l-177,10l-176,10l-58,174c-32,95-60,176-63,178C5374,9139,5370,9138,5367,9133z"/>
	<path class="st1" d="M5367,8268c-63-98-266-452-262-456c7-8,502,43,513,53c2,2-224,414-232,423C5383,8290,5375,8281,5367,8268z
		 M5408,8054c29-20,31-79,3-94c-32-17-69-12-85,12c-22,31-20,45,9,73C5363,8074,5377,8076,5408,8054z M5540,7805
		c-47-7-173-21-281-31l-195-18l-73-124c-40-68-71-125-69-127c4-3,133-31,234-49c45-8,130-20,190-26c126-13,476-15,499-3
		c12,7-6,44-92,201c-59,105-111,191-117,191C5630,7818,5587,7812,5540,7805z M5539,7664c31-40,28-87-10-118c-17-14-42-26-56-26
		c-36,0-83,51-83,90C5390,7683,5494,7721,5539,7664z M4856,7402c-22-37-59-99-82-139l-43-71l57-27c378-181,922-340,1404-410l48-7
		l-174,313l-174,314l-203-3c-235-4-403,12-634,59c-82,17-152,32-155,34S4877,7438,4856,7402z M5170,7272c26-21,30-67,9-87
		c-26-25-55-26-82-4c-35,26-35,61-1,88C5129,7295,5141,7295,5170,7272z M5820,7181c36-36,46-73,29-112c-14-35-62-69-97-69
		c-63,0-120,68-106,128C5665,7209,5763,7239,5820,7181z M4613,6991c-51-88-93-164-93-171c0-13,158-89,313-149
		c132-51,331-102,492-126c141-21,467-24,610-6c153,19,375,65,375,77c0,6-10,26-22,44c-23,34-24,34-188,61c-463,77-896,203-1263,370
		c-72,32-131,59-132,59C4705,7149,4663,7078,4613,6991z M5061,6881c43-43,41-101-5-147c-28-28-42-34-76-34c-59,0-100,41-100,102
		c0,24,6,50,13,58C4938,6918,5015,6927,5061,6881z M4308,6473c-113-191-172-302-166-308s162-10,431-10c443,0,577,9,867,56
		c254,40,662,143,872,219l87,32l-27,49c-30,55-35,56-127,35c-307-72-710-88-989-40c-231,39-486,123-697,229c-38,19-70,35-72,35
		S4404,6636,4308,6473z M4512,6433c24-21,23-58-2-83c-55-55-135,24-83,82C4447,6454,4488,6455,4512,6433z M4952,6409
		c26-14,48-67,41-102c-7-34-56-77-89-77c-92,0-137,115-67,170C4865,6422,4919,6426,4952,6409z M5414,6384c49-48-13-117-75-84
		c-22,12-27,68-7,88C5349,6405,5396,6403,5414,6384z M6350,6392c-93-34-303-97-459-137c-289-75-583-121-919-146c-162-12-768-7-839,7
		c-30,6-32,4-82-80c-28-48-51-91-51-96c0-6,84-10,219-10c121,0,222-4,225-8c2-4-18-47-46-95c-28-49-48-91-45-94
		c11-10,275-67,477-102c431-74,913-100,1270-66c173,16,270,27,270,30c0,1-38,71-85,155s-85,154-85,156s113,5,250,6l250,3l-135,245
		c-75,135-139,247-143,251C6418,6414,6386,6406,6350,6392z M6316,6231c100-61,30-218-81-181c-49,16-70,45-70,97c0,38,5,49,33,74
		C6236,6255,6272,6258,6316,6231z M5804,5975c32-21,50-67,42-108c-21-112-185-109-202,4C5632,5955,5733,6021,5804,5975z M4827,5938
		c47-44,15-118-52-118c-36,0-75,36-75,70c0,10,9,29,21,44C4747,5967,4794,5969,4827,5938z M5268,5888c20-20,14-65-10-82
		c-12-9-28-16-35-16c-19,0-43,29-43,52C5180,5887,5238,5918,5268,5888z M4300,5658l-19-32l77-34c357-158,744-263,1197-323
		c229-31,667-34,845-6c63,10,119,21,126,25c8,5-12,48-60,135l-71,129l-45-6c-241-33-333-39-615-39c-311,0-483,12-770,54
		c-137,20-548,99-613,118C4321,5688,4318,5687,4300,5658z M5618,5444c45-31,19-114-36-114c-56,0-83,69-42,110
		C5564,5464,5588,5465,5618,5444z M6241,5432c33-27,30-78-5-109c-15-12-36-23-46-23s-31,11-46,23c-53,46-24,127,46,127
		C6205,5450,6228,5442,6241,5432z M4192,5478c-47-79-58-106-49-115c7-6,77-45,157-86c562-286,1272-481,2040-562
		c180-19,519-40,526-32c5,5-238,458-292,544c-12,18-18,20-51,12c-198-46-639-58-908-26c-321,39-629,103-877,183
		c-116,37-364,131-415,157C4255,5588,4257,5589,4192,5478z M4840,5260c66-66-2-171-88-135c-57,25-67,91-20,135
		C4760,5286,4814,5286,4840,5260z M5375,5135c33-33,32-70-4-106c-37-37-65-37-103,1c-25,26-29,36-24,63
		C5257,5158,5329,5182,5375,5135z M6471,5051c54-54,34-148-37-171c-83-28-158,57-124,141C6336,5084,6422,5100,6471,5051z M5948,4987
		c4-34-13-57-42-57c-28,0-46,18-46,45c0,30,20,46,55,43C5940,5016,5946,5010,5948,4987z M3971,5103c-72-123-129-228-126-233
		s81-34,173-64c537-174,1384-322,2207-386c77-6,194-15,259-20c66-5,122-7,124-5c3,2-3,16-12,29c-9,14-16,28-16,31s92,5,205,5
		s205,3,205,6c0,4-18,41-41,83l-41,77l-209,12c-454,26-850,83-1246,177c-442,106-795,232-1149,410l-200,101L3971,5103z M4340,5033
		c48-28,62-80,36-132c-47-90-186-50-186,55c0,35,59,94,95,94C4300,5050,4325,5043,4340,5033z M4880,4800c15-29,3-59-26-66
		c-46-12-72,37-38,70C4837,4826,4867,4824,4880,4800z M5355,4745c44-43,29-112-28-134c-31-12-53-6-84,22c-50,45-12,137,57,137
		C5319,4770,5340,4761,5355,4745z M6010,4640c43-43,14-120-46-120c-66,0-97,69-52,117C5939,4666,5983,4667,6010,4640z M3757,4738
		c-30-51-76-128-101-170l-46-78l43-1c23-1,122-4,219-8l177-6l-94-160l-94-160l27-7c40-10,633-38,952-45c397-8,788,17,1220,77
		c180,25,589,93,599,100c9,5,9,13,0,32c-13,29,17,24-304,49c-849,64-1608,186-2185,350c-91,26-291,93-342,114
		C3816,4830,3800,4811,3757,4738z M4481,4431c64-65,20-171-71-171c-33,0-48,6-71,29s-29,38-29,71s6,48,29,71s38,29,71,29
		S4458,4454,4481,4431z M5437,4354c34-21,47-75,29-117c-39-95-166-79-191,23c-9,39,24,93,65,107C5377,4379,5402,4376,5437,4354z
		 M4941,4340c21-12,25-50,7-68c-19-19-56-14-68,9c-9,16-8,26,5,45C4902,4353,4912,4355,4941,4340z M6550,4209
		c-292-52-598-94-915-126c-251-25-987-25-1410,0c-165,9-320,19-346,22l-45,5l-60-102c-32-56-60-107-62-114c-10-38,1189-54,1558-21
		c454,42,967,140,1382,264l86,26l-16,33C6703,4236,6701,4236,6550,4209z M4285,3960c0-18-6-26-23-28c-13-2-25,3-28,12
		c-10,26,4,48,28,44C4279,3986,4285,3978,4285,3960z M4791,3974c9-11,10-20,2-32c-15-24-44-27-59-7C4706,3973,4761,4010,4791,3974z
		 M6685,4099c-283-92-862-213-1215-254c-380-44-988-57-1445-31c-159,9-303,19-320,22c-29,5-32,2-105-122c-41-71-76-131-78-136
		c-4-10,39-27,231-92c465-157,911-245,1527-303c233-22,1009-25,1220-5c285,26,718,89,723,103c4,12-458,839-468,838
		C6750,4119,6718,4109,6685,4099z M6478,3923c47-29,55-96,16-142c-61-72-173-34-174,59c0,44,23,78,64,96
		C6417,3950,6441,3947,6478,3923z M6059,3765c47-24,56-78,19-119c-39-43-107-36-133,14c-21,41-19,58,14,91
		C5992,3783,6017,3787,6059,3765z M6697,3690c71-43,63-154-13-186c-45-19-78-12-115,26c-23,22-29,38-29,70c0,51,12,75,48,94
		C6625,3715,6659,3713,6697,3690z M4127,3658c62-58-5-156-83-123c-34,14-44,32-44,76C4000,3674,4079,3703,4127,3658z M5410,3640
		c11-11,20-24,20-30c0-13-37-50-50-50s-50,37-50,50s37,50,50,50C5386,3660,5399,3651,5410,3640z M4720,3560c49-49-7-120-75-94
		c-37,15-38,82-1,106C4664,3586,4700,3580,4720,3560z M6255,3446c38-16,56-43,57-86c4-129-162-167-202-46c-20,63,32,142,98,145
		C6215,3460,6236,3454,6255,3446z M5131,3435c55-29,64-92,19-137c-26-26-36-30-66-25c-42,7-63,22-75,56c-13,34,7,88,39,106
		C5083,3453,5095,3453,5131,3435z M5678,3414c29-33,28-76-2-110c-67-79-189,19-130,104C5579,3456,5638,3458,5678,3414z M3445,3448
		c-26-46-49-86-52-90c-4-8,718-248,922-306c528-151,1133-276,1765-366c331-47,341-47,933-44l567,3l-159,288c-88,159-161,291-164,293
		c-2,2-73-7-156-21c-374-61-635-84-1026-92c-913-17-1804,121-2490,386c-44,17-83,31-86,31C3495,3530,3471,3493,3445,3448z
		 M3860,3341c16-31,12-49-15-67c-48-31-101,15-70,62C3795,3366,3844,3369,3860,3341z M4478,3168c7-7,12-24,12-38s-5-31-12-38
		s-24-12-38-12s-31,5-38,12s-12,24-12,38s5,31,12,38s24,12,38,12S4471,3175,4478,3168z M5239,3076c59-31,67-102,17-152
		c-40-40-89-46-129-14C5029,2987,5127,3133,5239,3076z M7032,2993c68-64,22-183-71-183c-55,0-92,35-98,93c-7,56,13,92,60,112
		C6963,3032,6997,3025,7032,2993z M6095,2990c49-40,39-135-18-171c-94-59-195,39-143,139C5963,3014,6046,3030,6095,2990z M6541,2819
		c14-27-1-64-30-72c-44-11-81,49-49,81C6482,2848,6528,2842,6541,2819z M3362,3307c-26-34-364-618-360-623c12-11,799-23,1843-28
		c1011-5,1112-4,1035,9c-439,77-576,103-780,146c-557,119-941,231-1642,477C3393,3311,3369,3315,3362,3307z M3663,2990
		c60-67,14-170-78-170c-95,0-137,107-67,172c15,14,34,28,42,31C3589,3035,3635,3020,3663,2990z M4164,2879c47-37,23-109-36-109
		c-66,0-92,69-42,109c15,12,32,21,39,21S4149,2891,4164,2879z"/>
	<path class="st2" d="M4900,2090v-480h390h390l-2,478l-3,477l-387,3l-388,2V2090z"/>
</g>
</svg>
