<?xml version="1.0" encoding="utf-8"?>
<!-- Generator: Adobe Illustrator 25.0.1, SVG Export Plug-In . SVG Version: 6.00 Build 0)  -->
<svg version="1.1" id="Layer_1" xmlns="http://www.w3.org/2000/svg" xmlns:xlink="http://www.w3.org/1999/xlink" x="0px" y="0px"
	 viewBox="0 0 1080 1080" style="enable-background:new 0 0 1080 1080;" xml:space="preserve">
<style type="text/css">
	.st0{fill:#DFBC19;}
	.st1{fill:#009F5E;}
	.st2{fill:#9B6F45;}
</style>
<g transform="translate(0.000000,1080.000000) scale(0.100000,-0.100000)">
	<path class="st0" d="M5367,9133c-2-4-30-86-61-180l-58-173l-96-1c-53-1-134-4-179-7l-81-7l129-99c71-54,133-104,138-110
		c7-8-4-71-30-185c-21-96-38-176-36-178c2-1,67,42,145,97s144,100,147,100c4,0,65-48,136-106c103-84,129-101,129-85
		c0,17-44,238-65,327c-4,16,21,41,130,130l135,109l-177,10l-176,10l-58,174c-32,95-60,176-63,178C5374,9139,5370,9138,5367,9133z"/>
	<path class="st1" d="M5367,8269c-8-13-73-123-145-244c-231-393-661-1123-827-1405c-89-151-214-364-279-473c-64-108-116-202-116-207
		c0-6,81-10,219-10c121,0,222-4,225-8c4-7-179-324-704-1212c-70-118-126-216-125-218s100-6,218-10l216-7l-156-265
		c-85-146-275-467-421-715c-450-764-475-806-470-811c13-12,870-24,2463-34c952-6,1817-10,1923-8l193,3l-139,250
		c-76,138-300,542-498,899c-197,357-360,653-362,658c-2,4,89,8,202,8s206,4,206,8s-178,329-395,721c-217,393-395,716-395,718
		c0,1,113,4,250,5l250,3l-63,115c-36,63-324,585-642,1160c-317,575-585,1058-595,1074l-18,29L5367,8269z"/>
	<path class="st2" d="M4900,2090v-480h390h390l-2,478l-3,477l-387,3l-388,2V2090z"/>
</g>
</svg>
