<?xml version="1.0" encoding="utf-8"?>
<!-- Generator: Adobe Illustrator 25.0.1, SVG Export Plug-In . SVG Version: 6.00 Build 0)  -->
<svg version="1.1" id="Layer_1" xmlns="http://www.w3.org/2000/svg" xmlns:xlink="http://www.w3.org/1999/xlink" x="0px" y="0px"
	 viewBox="0 0 1080 1080" style="enable-background:new 0 0 1080 1080;" xml:space="preserve">
<style type="text/css">
	.st0{fill:#AA2C27;}
	.st1{fill:#009F5E;}
	.st2{fill:#CDA86A;}
</style>
<g transform="translate(0.000000,1080.000000) scale(0.100000,-0.100000)">
	<path class="st0" d="M5070,9874c0-5,21-22,48-39c105-66,329-243,474-374c489-442,761-822,898-1256c13-38,25-74,27-78
		c7-13,67,69,111,152c80,150,139,355,184,639c20,123,22,177,22,514c1,207-2,379-5,382c-7,7-218,32-394,47
		C6274,9874,5070,9885,5070,9874z M2264,8297c-64-71-153-216-200-329c-47-112-108-306-133-428c-12-58-33-152-46-210s-43-197-65-310
		c-23-113-44-214-47-226c-4-18,2-22,52-32c129-26,325-35,515-23c312,20,535,47,1200,146c52,8,151,21,220,30c69,8,159,20,200,25
		c387,50,957,71,1315,50c367-23,846-100,1195-194c52-14,95-24,97-23c1,2-31,70-71,152c-136,280-195,471-205,669l-6,119l-135,53
		c-245,96-565,184-797,219c-222,33-643,66-1033,80c-964,36-1346,90-1952,279l-47,15L2264,8297z M7795,8283c-515-30-748-82-1105-250
		c-58-28-122-55-141-62c-32-10-41-21-72-89c-50-108-60-153-60-267c0-139,55-337,151-546l40-86l88,19c152,32,429,43,722,30
		c377-17,688-63,1073-158c104-26,192-45,194-42c2,2-11,53-31,113c-46,145-72,249-138,555c-54,253-109,485-145,610
		c-11,36-27,91-35,123l-17,57l-237-2C7952,8287,7823,8285,7795,8283z M7390,5485c0-5,47-162,105-350c142-461,173-602,182-837l6-147
		l206-50c430-105,657-143,934-157c103-5,147-3,147,4c0,13,64,364,86,472c50,243,117,741,102,755c-9,9-312,96-528,151
		c-367,94-474,115-690,140C7783,5483,7390,5497,7390,5485z"/>
	<path class="st1" d="M4770,9853c-14-2-74-10-135-19c-431-60-596-139-1009-485c-122-102-254-198-470-341c-166-110-369-251-452-314
		c-149-113-284-228-284-244c0-4,10-10,23-12c12-3,90-23,172-46c447-120,877-171,1650-197c584-19,1034-61,1311-121
		c210-45,502-136,680-212l71-30l27,57c15,31,36,67,46,80c17,24,17,27-6,113c-31,115-113,320-169,424c-129,236-285,436-534,684
		c-264,264-428,400-707,589C4861,9862,4850,9866,4770,9853z M6963,9482c1-246-3-349-16-457c-41-323-112-582-212-772
		c-30-56-53-103-51-103s45,20,97,44c226,105,495,172,794,197c72,6,259,16,417,22l287,12l-48,145c-74,224-168,465-222,570
		c-110,214-267,369-484,477c-143,72-363,145-532,176l-31,6L6963,9482z M6838,6920c-54-4-118-11-143-15l-46-6l40-73
		c22-41,57-102,79-137c54-90,193-340,237-429c21-41,93-178,161-305c67-126,135-257,149-291l26-61l256-6c280-8,473-26,658-62
		c220-44,498-112,758-186c76-21,140-39,143-39c9,0,3,104-11,202c-28,188-84,370-196,644c-33,82-92,232-131,334s-72,187-74,189
		c-4,5-365,98-474,122c-180,39-486,88-655,104C7416,6923,6977,6932,6838,6920z M4610,6863c-197-7-618-46-855-78
		c-111-15-541-76-670-95c-355-51-613-73-875-74c-220,0-337,10-456,40c-18,5-23-2-39-58c-29-106-111-316-175-452
		c-60-128-61-130-43-153c74-94,510-581,519-580c6,1,57,54,115,118c372,412,524,575,545,583c15,6,33,6,48,0c13-5,149-142,302-304
		c154-162,301-319,329-348l50-53l190,212c232,258,210,234,323,362c51,57,104,109,118,115c32,15,64,2,98-40c16-18,54-60,85-93
		s131-141,221-240s195-213,233-253l69-74l26,23c15,13,101,96,192,185c526,513,592,574,620,574c15,0,37-8,48-17
		c11-10,173-201,361-425l342-407l127,95c70,52,216,160,325,240c108,81,197,151,197,156c0,6-28,108-61,227c-54,189-70,231-126,336
		c-116,214-129,232-166,238c-17,2-102,23-187,45c-392,102-793,169-1155,192C5141,6869,4807,6871,4610,6863z M7679,4037
		c0-1-9-65-19-142c-11-77-31-203-45-280c-25-131-27-168-35-584c-7-365-16-522-33-587c-2-7,92-46,208-85c154-51,313-79,485-86
		c164-6,336,9,357,30c6,7,23,82,38,167c60,351,94,508,175,800c60,218,130,512,130,546c0,2-37,4-82,4c-233,1-583,62-1030,179
		C7746,4021,7680,4037,7679,4037z"/>
	<path class="st2" d="M5520,5968c-30-28-131-126-225-218c-547-533-521-510-553-510s-54,22-467,473c-114,125-211,227-215,227
		s-40-37-80-82c-40-46-107-121-150-168c-42-47-145-161-229-255c-84-93-164-174-177-178c-17-6-32-4-48,6c-13,9-136,134-273,279
		c-138,145-285,300-327,343l-76,80l-28-31c-25-29-131-144-477-522c-77-84-150-155-162-158c-38-10-58,4-128,89
		c-223,267-468,557-471,557c-16,0-127-342-170-521c-55-234-23-706,60-866c30-59,101-120,187-161c237-114,558-150,1209-137
		c206,5,661,9,1010,10c745,1,763,3,1585,125c612,91,652,95,935,94c225,0,275-3,428-27c388-60,505-18,528,190c7,74-14,288-47,463
		c-27,143-139,600-148,600c-4,0-155-110-336-245c-217-161-338-245-354-245c-33,0-52,21-426,468c-170,204-312,371-315,371
		S5550,5996,5520,5968z M7380,2323c-125-50-250-159-361-316c-98-138-145-273-156-449c-22-351,153-734,428-938
		c137-102,325-179,499-205c336-51,688,57,893,274c170,180,318,478,357,714c48,300-85,603-334,756l-37,23l-126-17
		c-166-23-431-16-578,15c-121,26-307,87-411,135c-42,19-84,35-93,35S7416,2338,7380,2323z"/>
</g>
</svg>
