<?xml version="1.0" encoding="utf-8"?>
<!-- Generator: Adobe Illustrator 25.0.1, SVG Export Plug-In . SVG Version: 6.00 Build 0)  -->
<svg version="1.1" id="Layer_1" xmlns="http://www.w3.org/2000/svg" xmlns:xlink="http://www.w3.org/1999/xlink" x="0px" y="0px"
	 viewBox="0 0 738.4 626.6" style="enable-background:new 0 0 738.4 626.6;" xml:space="preserve">
<style type="text/css">
	.st0{fill:#EC1A2C;}
	.st1{fill:#CECECE;}
</style>
<g>
	<path class="st0" d="M342.9,24.4c-24.5,1.9-42.1,4.7-59.8,9.3c-93.4,24.2-159.5,88.2-192.3,186.5c-8.5,25.6-13.3,46.4-19.3,84
		c-10.3,64.4-9.3,88.5,4.3,102.1c10.2,10.1,22.4,12.2,61.1,10.5c76.5-3.4,135.6-3.9,222.5-1.9c67.3,1.5,83.1,0.5,98.6-6.6
		c13.9-6.4,19.4-20.2,14.5-36.3c-1.1-3.8-7.9-18.8-15.2-33.3c-19.2-38.9-26.2-56.4-32.8-82.6c-7.6-30.4-9.5-60.4-5-78.9
		c3.1-12.7,10.4-22.7,20.2-27.4c10-4.9,18.9-6.4,38.2-6.4c17.4,0,22.3,0.5,49.5,5c8.5,1.4,18.4,2.6,21.8,2.7
		c5.9,0.1,6.6-0.1,8.7-2.8c4.2-5.2,14.8-24.5,18.1-32.9c6.3-16.2,5.6-17.9-7.9-20.2c-11.5-2-28.8-7.6-40.2-13
		c-4.9-2.4-18.4-10.2-29.8-17.4c-38.3-23.9-58.3-32.3-89.2-37.5C391,24.3,360.6,22.9,342.9,24.4z"/>
	<path class="st1" d="M632,103.7c-2.6,0.5-5.5,1.2-6.5,1.5c-0.9,0.4-3.6,0.9-6,1.1c-9.5,1-18.4,7.1-23.9,16.4
		c-2.4,4-2.7,5.5-2.7,14.1v9.7l-5,3.9c-16,12.8-23.4,26.7-22.3,42.4c1.5,20.3,18.4,33.9,42.3,33.9h8.1l3.4,5.2
		c6.5,9.6,17.2,14.8,30.3,14.8c29.4,0,54.3-25.2,50-50.5c-0.6-3.6-2-8.4-3.1-10.6l-2-4.1l2.9-4.6c1.6-2.6,3.8-7.3,4.9-10.6
		c9.4-27.5-5.5-53.1-35.5-61.1C659.9,103.3,639.1,102.4,632,103.7z M298.4,430.7c-32.7,0.9-88.6,2.7-125,4.2
		c-15.7,0.6-43.1,1.2-61,1.4c-36.6,0.5-39.2,0.9-52.4,7.7c-9.5,4.9-21.3,16-26.9,25.3c-21.3,35.3-8.2,72.3,28.9,81
		c10.4,2.4,34.6,1.4,47.4-1.9c5.2-1.4,9.5-2.5,9.5-2.4c0.1,0.1,1.8,3.8,3.9,8.1c5,10.4,13.5,18.9,23.7,23.8
		c9.8,4.8,16.4,6.2,28.4,6.1c17.6-0.1,35.3-4.9,58.4-15.9l13.4-6.4l6.1,5.8c11.3,10.5,23.6,17.4,38.1,21.3c11.2,3,29.8,3,40.8,0
		c13.5-3.6,26.9-10.5,43.5-22.4l7.3-5.2l5.2,2.9c27.3,15.3,40.3,19.7,57.6,19.7c19.7,0,34.5-6.7,43.3-19.6c4.7-7,6.6-16.5,4.9-24.4
		c-0.6-3-1-5.5-0.9-5.7c0.2-0.1,4.5-2,9.5-4.2c26-11.3,37.7-24.4,37.8-42.2c0-17.4-12.6-34.9-33.5-46.3c-11.1-6-14.3-6.5-50-7.7
		c-17.9-0.5-43.3-1.4-56.5-2C364.2,430.3,327.1,429.9,298.4,430.7z"/>
</g>
</svg>
